<?xml version="1.0" standalone="no"?><!DOCTYPE svg PUBLIC "-//W3C//DTD SVG 1.1//EN" "http://www.w3.org/Graphics/SVG/1.1/DTD/svg11.dtd"><svg t="1591976766362" class="icon" viewBox="0 0 1025 1024" version="1.1" xmlns="http://www.w3.org/2000/svg" p-id="4338" xmlns:xlink="http://www.w3.org/1999/xlink" width="128.125" height="128"><defs><style type="text/css"></style></defs><path d="M875.432 148.568c-198.09-198.09-523.981-198.09-722.072 0s-198.09 523.981 0 722.072 523.982 198.09 722.072 0 198.09-517.592 0-722.072z m-230.04 587.881l-134.19-134.19-134.191 134.19c-25.56 25.56-63.9 25.56-89.46 0s-25.56-63.9 0-89.46L421.74 512.8l-134.19-134.19c-25.56-25.56-25.56-63.9 0-89.46 25.56-25.56 63.9-25.56 89.46 0l134.19 134.19 134.19-134.19c25.56-25.56 63.9-25.56 89.46 0s25.56 63.9 0 89.46l-134.19 134.19 134.19 134.19c25.56 25.56 25.56 63.9 0 89.46-25.56 25.56-63.9 25.56-89.46 0z" fill="#FF0000" p-id="4339"></path></svg>