<?xml version="1.0" standalone="no"?><!DOCTYPE svg PUBLIC "-//W3C//DTD SVG 1.1//EN" "http://www.w3.org/Graphics/SVG/1.1/DTD/svg11.dtd"><svg t="1590498590438" class="icon" viewBox="0 0 1024 1024" version="1.1" xmlns="http://www.w3.org/2000/svg" p-id="4618" xmlns:xlink="http://www.w3.org/1999/xlink" width="200" height="200"><defs><style type="text/css"></style></defs><path d="M257.22 814.53a36.46 36.46 0 0 1-25.78-62.24L471.73 512 231.44 271.71A36.46 36.46 0 0 1 283 220.15l246.77 246.73a63.83 63.83 0 0 1 0 90.2L283 803.85a36.35 36.35 0 0 1-25.78 10.68z" fill="#ffffff" p-id="4619"></path><path d="M512 814.53a36.46 36.46 0 0 1-25.78-62.24L726.47 512 486.18 271.71a36.46 36.46 0 0 1 51.56-51.56l246.77 246.73a63.66 63.66 0 0 1 0 90.2L537.75 803.85A36.35 36.35 0 0 1 512 814.53z" fill="#ffffff" p-id="4620"></path></svg>